PathFileType	4	(X/Y/Z)	C:/Users/beibeiliu/ov580/test_trc/User1\sequence.25_training_dense_left.trc
DataRate	CameraRate	NumFrames	NumMarkers	Units	OrigDataRate	OrigDataStartFrame	OrigNumFrames
120	120	11	19	mm	120	122	242
Frame#	Time	ThumbCMC			ThumbMCP			ThumbIP			ThumbTip			IndexMCP			IndexPIP			IndexTip			MiddleMCP			MiddlePIP			MiddleTip			RingMCP			RingPIP			RingTip			PinkyMCP			PinkyPIP			PinkyTip			BackHand1			BackHand2			BackHand3	
		X0	Y0	Z0	X1	Y1	Z1	X2	Y2	Z2	X3	Y3	Z3	X4	Y4	Z4	X5	Y5	Z5	X6	Y6	Z6	X7	Y7	Z7	X8	Y8	Z8	X9	Y9	Z9	X10	Y10	Z10	X11	Y11	Z11	X12	Y12	Z12	X13	Y13	Z13	X14	Y14	Z14	X15	Y15	Z15	X16	Y16	Z16	X17	Y17	Z17	X18	Y18	Z18	
121	1.00833	-137.722	13.6659	47.6936	-133.332	-14.2694	24.9561	-145.284	-26.6999	-2.04116	-171.284	-37.5166	-17.9506	-156.306	2.92873	-37.9302	-162.546	-9.18985	-56.894	-175.119	-24.4751	-80.4409	-176.913	-16.9869	-36.5729	-172.522	-47.483	-33.1051	-172.974	-65.9075	1.26098	-197.358	-22.5553	-13.5658	-190.052	-46.039	10.6654	-181.184	-31.0268	39.4311	-214.891	-17.4116	-1.86854	-201.421	-36.1834	18.8767	-184.393	-18.39	39.8828	-195.368	34.0105	8.07438	-197.449	50.3696	44.708	-160.225	44.0667	26.5693	
122	1.01667	-140.221	18.0057	46.9335	-130.422	-8.32257	19.9111	-138.764	-24.9312	-7.71028	-161.344	-36.6348	-21.6778	-154.011	4.68699	-42.1997	-158.802	-7.11377	-58.1441	-166.505	-19.9463	-79.4183	-173.976	-14.0603	-38.8285	-167.768	-47.566	-35.4568	-160.271	-67.5243	-2.71268	-192.216	-25.8752	-14.883	-182.502	-47.2161	9.77146	-175.889	-32.5412	37.0343	-209.862	-24.3176	-1.70262	-194.925	-36.8555	16.6528	-177.229	-16.5143	35.4193	-198.189	32.6881	5.53485	-197.757	51.1035	41.6758	-159.377	44.943	24.7682	
123	1.025	-133.801	21.8678	41.874	-125.972	-4.97562	15.5779	-135.599	-19.8642	-8.19522	-150.24	-37.8905	-22.5287	-148.812	7.7054	-42.0322	-157.843	-6.74013	-62.9617	-164.577	-20.8343	-85.0418	-168.734	-13.6907	-39.9158	-164.749	-47.7405	-36.994	-152.679	-69.4709	-10.0781	-185.078	-22.6731	-17.3747	-174.701	-46.8095	8.27074	-166.914	-30.3218	37.0218	-204.827	-21.741	-3.36996	-186.561	-36.259	16.5363	-173.484	-19.3348	38.3976	-197.981	32.5129	8.91015	-195.682	48.2866	38.3487	-164.272	47.4795	24.3513	
124	1.03333	-134.606	24.7646	40.2495	-125.397	-1.46792	17.1301	-128.665	-18.805	-9.82689	-142.506	-35.7916	-23.0996	-150.404	8.64523	-41.6712	-156.174	-5.36773	-60.329	-163.154	-19.1034	-83.1324	-163.878	-12.1718	-40.6917	-157.735	-47.954	-39.5676	-145.463	-71.7894	-16.9029	-182.248	-25.4634	-17.1956	-166.664	-47.0886	4.38675	-158.388	-29.0998	35.8979	-201.692	-25.7652	-1.88635	-180.201	-37.3165	17.9075	-167.059	-15.8458	37.8633	-193.911	30.3099	4.4226	-199.033	47.3647	39.9531	-163.507	46.6371	23.6395	
125	1.04167	-132.839	27.9382	39.1227	-118.469	0.779943	17.6267	-123.445	-16.5911	-7.72283	-135.124	-34.0251	-24.4032	-146.61	11.2298	-42.6356	-149.77	-2.92984	-62.5905	-159.149	-18.1729	-84.6097	-159.97	-16.2405	-43.0565	-151.261	-46.7794	-42.7771	-138.336	-74.5232	-23.1485	-176.473	-29.2362	-18.0866	-155.353	-46.9503	6.95226	-154.713	-31.7958	36.5202	-194.851	-29.1393	-2.84595	-172.4	-39.8301	16.1561	-162.16	-18.0762	36.8299	-196.417	25.8206	4.03459	-198.862	42.9851	35.5006	-164.111	46.6089	20.5848	
126	1.05	-130.991	28.2425	38.6192	-117.833	3.55589	17.9181	-119.671	-15.2256	-11.3955	-130.108	-33.5076	-25.7778	-144.782	10.1393	-47.5075	-146.968	-2.53884	-64.5247	-157.305	-19.6287	-86.9374	-159.193	-12.6483	-41.4775	-143.379	-41.0803	-46.6093	-128.73	-70.5654	-30.9769	-168.255	-34.0368	-17.7593	-151.183	-47.1206	5.00944	-147.161	-33.5585	33.3931	-190.16	-33.9141	-4.02804	-166.339	-42.0904	11.2695	-157.262	-18.8754	34.3311	-193.722	23.659	1.20775	-198.005	38.572	39.4806	-166.5	45.6	16.9817	
127	1.05833	-130.049	31.0607	38.5326	-110.811	4.40467	16.4707	-117.276	-12.3892	-8.36902	-126.152	-34.1059	-29.2225	-144.496	11.3941	-45.9811	-144.04	-0.300721	-64.075	-152.893	-16.7017	-87.6649	-149.616	-13.7694	-44.5875	-136.19	-42.3071	-45.9304	-120.257	-70.3003	-29.1396	-161.54	-31.6157	-19.5355	-145.793	-47.0831	3.27771	-139.211	-29.6087	34.2121	-183.616	-35.9644	-5.19365	-161.598	-45.6737	13.5024	-151.518	-18.988	33.0439	-191.142	23.0574	5.80917	-197.589	36.6094	34.4667	-166.892	44.5984	16.3919	
128	1.06667	-129.236	32.1704	38.4783	-109.154	6.9669	15.5178	-113.388	-11.1445	-10.2592	-119.859	-31.9835	-25.3915	-142.976	14.327	-43.6377	-143.044	-0.0121327	-65.643	-144.691	-12.2627	-84.7843	-147.872	-14.7864	-44.1621	-129.434	-40.1991	-47.6311	-113.717	-65.9192	-27.9921	-155.976	-33.3674	-19.893	-138.334	-46.4623	0.658391	-134.494	-29.3824	33.2345	-176.84	-34.4252	-7.03172	-153.606	-45.2051	13.1621	-146.075	-16.5141	31.9066	-189.591	17.9891	4.07011	-197.876	33.1717	37.9942	-164.952	46.43	20.0901	
129	1.075	-127.975	33.8269	36.8677	-108.584	9.44756	13.3444	-112.319	-9.80012	-13.6548	-117.959	-28.4989	-23.8946	-139.576	17.002	-44.6163	-140.217	0.335494	-68.4594	-143.038	-11.8551	-85.6328	-147.986	-13.7172	-43.3282	-123.688	-38.6514	-47.4921	-104.397	-61.999	-29.4569	-151.422	-33.532	-19.3936	-130.637	-46.0681	1.92833	-128.433	-29.8849	31.7664	-170.986	-40.1329	-5.8619	-144.863	-43.8457	10.982	-138.187	-17.3815	31.9024	-188.67	14.5676	5.29256	-195.142	29.3029	38.0159	-163.94	43.7278	17.8625	
130	1.08333	-128.967	35.7883	33.1115	-106.977	14.8962	7.29969	-109.328	-6.41097	-14.9693	-114.429	-28.4038	-28.257	-139.999	16.7802	-46.0901	-141.419	-0.163189	-67.3069	-144.616	-16.2631	-88.3793	-142.666	-12.7	-45.6303	-120.733	-36.1941	-50.0568	-96.4358	-55.7684	-33.1258	-149.34	-33.1797	-20.1829	-118.69	-40.4284	1.97744	-119.557	-24.6639	32.2011	-160.112	-41.668	-5.08157	-137.107	-42.7471	10.0749	-132.408	-18.5383	31.7565	-188.37	7.61825	2.77372	-193.657	20.6586	38.859	-167.122	41.452	19.908	
131	1.09167	-131.016	36.9237	33.1745	-108.1	19.5827	6.24797	-106.602	0.0170944	-15.8147	-113.05	-25.2385	-27.7263	-142.674	12.6268	-49.2857	-141.528	0.00716163	-66.2483	-145.176	-19.1218	-85.469	-141.461	-16.2818	-47.3232	-116.698	-35.7452	-51.9591	-88.8856	-55.1977	-36.6522	-141.256	-34.7022	-18.7567	-113.583	-41.04	2.07487	-113.63	-25.4913	30.0423	-153.437	-41.86	-5.06041	-129.633	-43.1598	12.0411	-125.163	-16.4174	34.2657	-186.992	0.818504	7.40003	-192.638	17.8328	38.8759	-169.921	36.954	19.6218	
